PathFileType	4	(X/Y/Z)	47_1_6_p0_0-404_filt_butterworth.trc
DataRate	CameraRate	NumFrames	NumMarkers	Units	OrigDataRate	OrigDataStartFrame	OrigNumFrames
59.0	59.0	6	27	m	59.0	252	404
Frame#	Time	RHip			RKnee			RAnkle			RBigToe			RSmallToe			RHeel			LHip			LKnee			LAnkle			LBigToe			LSmallToe			LHeel			Neck			Head			Nose			RShoulder			RElbow			RWrist			RThumb			RIndex			RPinky			LShoulder			LElbow			LWrist			LThumb			LIndex			LPinky			
		X1	Y1	Z1	X2	Y2	Z2	X3	Y3	Z3	X4	Y4	Z4	X5	Y5	Z5	X6	Y6	Z6	X7	Y7	Z7	X8	Y8	Z8	X9	Y9	Z9	X10	Y10	Z10	X11	Y11	Z11	X12	Y12	Z12	X13	Y13	Z13	X14	Y14	Z14	X15	Y15	Z15	X16	Y16	Z16	X17	Y17	Z17	X18	Y18	Z18	X19	Y19	Z19	X20	Y20	Z20	X21	Y21	Z21	X22	Y22	Z22	X23	Y23	Z23	X24	Y24	Z24	X25	Y25	Z25	X26	Y26	Z26	X27	Y27	Z27	
252	4.271186440677966	0.35355727866403885	0.5005986012103544	0.7803405246824878	0.3481894127609721	0.011501614421574491	0.7872739594606092	0.3230556665545559	-0.3808666925965973	0.7847255828657268	0.3474502043400736	-0.3728178400070622	0.6133125038193349	0.4051763266746583	-0.37616055608288596	0.6333785275157968	0.26376390428601776	-0.4717134499054434	0.8726200568592447	0.17345766098611562	0.49632565243497717	0.7150089948567522	0.1532451293158729	0.04020025225217522	0.7243878082131257	0.1309377123021367	-0.3847082076537009	0.7398390369663944	0.20896956752660822	-0.34839412999018843	0.5476379015697878	0.13374906334858144	-0.38850597453613134	0.6024377748613604	0.13089796055642372	-0.44598755691866765	0.7893495575526578	0.2850798056623369	1.0513935900262137	0.7393850455087997	0.325257543498597	1.3026521684932448	0.6718536807171968	0.33769179685373507	1.1756760566423143	0.6094331963506864	0.42122093099768376	0.951574931870483	0.747073857562351	0.44256483277190006	0.7247581819438541	0.7339733450308579	0.3870751173151439	0.5416956830848527	0.6014607835380984	0.3177308319855422	0.4326820989162132	0.5548508869539489	0.31172226842425194	0.42684512573117506	0.5646289973958989	0.3227991860144521	0.4143695680149194	0.5728653099238674	0.13817720056052907	0.9443974494725427	0.7184909148331379	0.1350417624857203	0.7011254300882329	0.668967781121348	0.2721890585447274	0.5198537993493679	0.5831407439220468	0.354749414489302	0.44710583469977905	0.5575379835766416	0.3514555835447403	0.43932061584948817	0.5550701467192958	0.30390488005220356	0.42211661974818027	0.5671426708759826	
253	4.288135593220339	0.3534489861972718	0.5001826657541386	0.7802723547958651	0.3482041039619189	0.011135155197524949	0.7872309112625173	0.32294248536580844	-0.3812023088809487	0.7847850361024141	0.3487470549905416	-0.3707758628589573	0.6101624871499994	0.40507659906040905	-0.3765487746836451	0.6331864527095948	0.26366277094991875	-0.4717313013618711	0.8727232305000734	0.1733934123215104	0.49595711502197093	0.7149824037299213	0.15365699507358868	0.0401745875978356	0.7236695397389334	0.13082309330612588	-0.38472099585401764	0.7400422457766517	0.20896762817759656	-0.3484096782114197	0.547666970854509	0.13355715186461578	-0.3893529515338433	0.6024000540787596	0.12992388271511954	-0.44780918166167805	0.7914722348187239	0.2834785675988025	1.0511468766245453	0.7415375075099342	0.3252221125024459	1.3026545040214268	0.6718844939102534	0.3377777540044289	1.1759679725729804	0.6095085268317728	0.42121881244115145	0.9515828647240322	0.7470766538120189	0.4418326027346926	0.72465244236099	0.7332327915618736	0.3866724248687696	0.5410522468954666	0.5993570591008578	0.31590298642248305	0.4323321461628805	0.556053218336014	0.3112671284262167	0.42922236826793003	0.5620738864235381	0.32129052617952236	0.42060907430066713	0.5693746566925103	0.1381271441434742	0.9443251768630995	0.7188194958210236	0.13503725141519787	0.7011025053732383	0.6690018290282733	0.27372433895437853	0.5197389881380102	0.5822005784172603	0.3529930780777676	0.4461904246004714	0.5597517072124847	0.3510512403963243	0.4373165276382639	0.5567380718572443	0.30386259831209583	0.4221288973001551	0.5673140373279076	
254	4.305084745762712	0.35345436851545853	0.4998914299379048	0.7803084276790972	0.34824151828541794	0.010767267223361854	0.7871598909566198	0.3228734455900842	-0.3813796302776689	0.7848521813571446	0.3498050841407243	-0.3689026214631022	0.6077239812068024	0.40492971926438437	-0.3769953700642457	0.6331410020891265	0.26360947109316724	-0.4716312764656001	0.872810675844374	0.17336256423080448	0.495533975553364	0.7148935947166115	0.15387285027617503	0.040184799213834665	0.7229341361905399	0.13071847901164907	-0.38475390994391373	0.7402094060211876	0.2089586264120621	-0.3484967695598939	0.5478087956609975	0.13340878670068465	-0.39001716586819385	0.6023714060171634	0.12883678942028545	-0.4496425420723559	0.7936588579665496	0.28222513088858214	1.0509729588017325	0.7432195011790699	0.32518307789533185	1.3026587712781066	0.6719282971583674	0.33770723303568295	1.176540728810712	0.6094479369477684	0.4212173030407099	0.951590689893565	0.7470844434960751	0.44127407519127243	0.724586969097226	0.7327587803406443	0.3861675527535645	0.5410970786561979	0.5983211213604765	0.313880743711782	0.43166997252287953	0.5574880673141879	0.3108261309749264	0.43116217824676994	0.5603754393311909	0.3200855764375311	0.426451172084061	0.5666274318445472	0.138083905929751	0.9442645565748945	0.7190738329832882	0.13503235798644864	0.7010778825241333	0.6690274224238714	0.27482513029578176	0.5194410969374464	0.581306333192381	0.35137440875922776	0.4453268785308261	0.5617733217085481	0.3502317212934307	0.43513412011588015	0.5592399399663277	0.3038141428596686	0.42198870570481084	0.5675330915271197	
255	4.322033898305085	0.35352884584151745	0.4997125690723353	0.7804231578503937	0.3482897321771909	0.010475437924076347	0.7870665643326349	0.3228457152420975	-0.38141883177351765	0.7849122821793442	0.3503214528445524	-0.36767650241727284	0.6067326596831458	0.4047573107670634	-0.37738450726324174	0.6331262716598598	0.2636062103028935	-0.47142429216382287	0.8728454021411142	0.17336133230582404	0.49502183828609747	0.7147801981596305	0.15391922219036444	0.04024994463743109	0.7222295365459543	0.13062342133906163	-0.38481074046118124	0.7403204007977058	0.2089481044331389	-0.34864010141012597	0.5480452239577238	0.13332572007362023	-0.3903996172885222	0.6023546916386133	0.12781835347148066	-0.4512664909619423	0.7955699940836468	0.2815037970422454	1.0508867434993034	0.7441826797995328	0.3251705624246416	1.3026662259313802	0.6719395013818268	0.3373858941549657	1.1772800054644348	0.6092226963857724	0.42121704537493976	0.9515951147380106	0.7470938708665149	0.440966261162943	0.7245157487171698	0.7325990531228616	0.3855116880373318	0.541597913033834	0.5984153105646429	0.3119815029752241	0.4309199191994979	0.5588777850511636	0.3105921908443532	0.43214041892499366	0.5601884415725398	0.3194562031477663	0.43021213988937357	0.5651511186433564	0.1380896512505952	0.944285107369554	0.7188145466197293	0.1350274790016308	0.7010495059994118	0.6690377255646723	0.2754479834726208	0.5191647281083438	0.5802574255407112	0.3501504250725162	0.44463665876846237	0.5632887893860096	0.34931624040433595	0.43346541468005984	0.5618962936203905	0.30377332417515746	0.42183559120750747	0.5677101612517913	
256	4.338983050847458	0.35360291359653384	0.4996171874834766	0.7805397182039837	0.34832943643547487	0.010296520367149509	0.7869747848450412	0.3228544412646972	-0.38134171394629457	0.784964219764958	0.35011339195933977	-0.3671944415300079	0.6071893037675432	0.40462001681873516	-0.37765408752160373	0.6330574967667522	0.26364381758523153	-0.4711272980735242	0.8728400274909527	0.1733799180813627	0.49441962914682835	0.7146532707727482	0.15384815682278202	0.04030154389857832	0.7217083852177312	0.13053529203880848	-0.38486759888964467	0.7403564295046158	0.20895887027692894	-0.34868801425270957	0.548133628558685	0.133310698410083	-0.39048404405317	0.6023454032635758	0.12695840080959647	-0.4525678375180893	0.7970159839936549	0.28133524340788896	1.050858293223634	0.7443994296652006	0.32524165668390576	1.302678842002857	0.6718336363079153	0.33682054828908325	1.1780693609030808	0.6088602483875972	0.421218639296595	0.9515833752986766	0.7470997102907442	0.4408934848858152	0.7244811511169331	0.7326388425041712	0.3848682877937698	0.5422139754570069	0.5993602866473766	0.31051965579707824	0.43012702088337296	0.5599755123292509	0.31070485767034606	0.4319090169125051	0.5616979579072242	0.31940838565517005	0.4314699858789097	0.5649920857177512	0.13817312315665808	0.9444333459892879	0.7177382885195989	0.13502563947259946	0.7010199289981691	0.6690261466939202	0.27587081133454394	0.519088517261397	0.5790538271969314	0.3495031912554928	0.44422270096987837	0.56410641697876	0.34860825211459884	0.43269915424005145	0.5641197695002081	0.3037472522239577	0.4217453240323177	0.567804987357102	
257	4.3559322033898304	0.35364465971604914	0.49960392737791304	0.7805914390532027	0.3483481622119694	0.010218486367869872	0.7869006941061496	0.32289836073512007	-0.3811563981031859	0.785016082451658	0.34922453083426663	-0.3674047136449784	0.6088192727236797	0.40456014317396866	-0.3778264993584616	0.6330896685117279	0.2637134209273461	-0.4707479732638672	0.8728394814142598	0.1734027021270775	0.49378669419155224	0.7145156316864358	0.15372471400453855	0.04029591010060474	0.7214539365078909	0.13045300720121705	-0.3848870525154501	0.7402752249195538	0.2090051370370915	-0.3484574789853073	0.5477743022428283	0.1333376745769011	-0.3903790854000007	0.6023366647943161	0.12625699370339655	-0.4535478415325156	0.798011279893697	0.28150826605243995	1.0508361766054497	0.7441569689688217	0.3254134482560088	1.3026966555666537	0.6715850611298807	0.33609684024388353	1.1788767790622408	0.6083925956693946	0.4212222481358041	0.9515330628156764	0.7470975736065373	0.4409528515181262	0.7244899719143177	0.7327005503603261	0.3843392216715465	0.542517284813166	0.6006852001376727	0.30972473367871317	0.42921674053047887	0.5607062982571595	0.3111518289520488	0.43064061626052924	0.5644535483922531	0.31969020883061117	0.4310503069410816	0.5656362860239934	0.1383303996733192	0.9447020813933158	0.7158853351940359	0.13503003898036997	0.7009960641244561	0.6689920502541393	0.27656120089923736	0.5194195558903443	0.5776576816421221	0.3494302932569169	0.44411936224645154	0.5642508658365021	0.34822009204178633	0.43283683453160526	0.5656098150429987	0.3037317169138399	0.42170338620077386	0.5678445064645508	
